<?xml version="1.0" encoding="UTF-8"?>
<svg id="Layer_1" data-name="Layer 1" xmlns="http://www.w3.org/2000/svg" xmlns:xlink="http://www.w3.org/1999/xlink" viewBox="0 0 1920 1080">
  <defs>
    <style>
      .cls-1 {
        fill: #333;
        filter: url(#drop-shadow-1);
        stroke-width: 12.22px;
      }

      .cls-1, .cls-2, .cls-3, .cls-4 {
        stroke-miterlimit: 10;
      }

      .cls-1, .cls-2, .cls-4 {
        stroke: #000;
      }

      .cls-2 {
        fill: #5b5b6b;
        stroke-width: 3.76px;
      }

      .cls-3 {
        fill: #878796;
        stroke: #3c3c47;
        stroke-width: 4px;
      }

      .cls-4 {
        fill: none;
        stroke-width: 5px;
      }

      .cls-5 {
        fill: #69bd45;
        filter: url(#outer-glow-2);
        font-family: CascadiaCodeRoman-Bold, 'Cascadia Code';
        font-size: 137px;
        font-variation-settings: 'wght' 700;
        font-weight: 700;
      }

      .cls-6 {
        fill: #fff;
        font-family: CascadiaCode-Regular, 'Cascadia Code';
        font-size: 43px;
        font-variation-settings: 'wght' 400;
      }
    </style>
    <filter id="drop-shadow-1" filterUnits="userSpaceOnUse">
      <feOffset dx="7" dy="7"/>
      <feGaussianBlur result="blur" stdDeviation="5"/>
      <feFlood flood-color="#000" flood-opacity=".4"/>
      <feComposite in2="blur" operator="in"/>
      <feComposite in="SourceGraphic"/>
    </filter>
    <filter id="outer-glow-2" filterUnits="userSpaceOnUse">
      <feOffset dx="0" dy="0"/>
      <feGaussianBlur result="blur-2" stdDeviation="5"/>
      <feFlood flood-color="#93ff8a" flood-opacity=".75"/>
      <feComposite in2="blur-2" operator="in"/>
      <feComposite in="SourceGraphic"/>
    </filter>
  </defs>
  <path class="cls-2" d="m1196.38,315.08c-2.75-4.23-5.97-8.07-9.55-11.47l-.02-.47,12.66-24.75-30.9-15.8-12.62,24.68c-4.86-1.05-9.87-1.56-14.95-1.45l-.59-.54-8.79-27.18h-.03s-.01-.03-.01-.03l-33.18,10.18,8.56,27.88-.05.24c-3.03,1.99-5.87,4.21-8.49,6.64l-4.17.21-24.75-12.66-15.8,30.9,25.96,13.28c-1.09,4.35-1.73,8.83-1.89,13.39l-1.39,1.49-27.18,8.79v.03s-.03.01-.03.01l10.18,33.18,27.36-8.4c2.18,3.69,4.69,7.11,7.5,10.24l.12,2.31-12.66,24.75,30.9,15.8,12.18-23.82c5.29,1.5,10.79,2.33,16.39,2.43l8.37,25.88h.03s.01.03.01.03l33.18-10.18-7.58-24.7c4.67-2.76,8.91-6.06,12.67-9.79l23.81,12.18,15.8-30.9-22.48-11.49c1.4-5.6,2.05-11.43,1.89-17.34l25.08-8.11v-.03s.03-.01.03-.01l-10.18-33.18-25.39,7.8Zm-51.1,48.93c-8.04,2.6-16.66-1.81-19.26-9.85-2.6-8.04,1.81-16.66,9.85-19.26s16.66,1.81,19.26,9.85c2.6,8.04-1.81,16.66-9.85,19.26Z"/>
  <path class="cls-2" d="m1013.13,614.67c-3.01-4.05-6.46-7.68-10.25-10.86l-.05-.47,11.09-25.49-31.82-13.85-11.06,25.42c-4.92-.75-9.95-.94-15.01-.52l-.62-.51-10.46-26.58h-.03s-.01-.02-.01-.02l-32.48,12.23,10.28,27.29-.04.25c-2.9,2.17-5.6,4.57-8.06,7.15l-4.14.47-25.49-11.1-13.85,31.82,26.74,11.64c-.82,4.41-1.18,8.92-1.06,13.48l-1.29,1.57-26.58,10.46v.03s-.02.01-.02.01l12.23,32.48,26.78-10.08c2.4,3.55,5.13,6.81,8.12,9.75l.26,2.29-11.1,25.49,31.82,13.85,10.67-24.53c5.37,1.17,10.92,1.65,16.51,1.4l9.96,25.31h.03s.01.02.01.02l32.48-12.23-9.1-24.18c4.49-3.04,8.52-6.6,12.03-10.56l24.53,10.67,13.85-31.82-23.15-10.07c1.05-5.68,1.34-11.54.81-17.42l24.53-9.65v-.03s.02-.01.02-.01l-12.23-32.48-24.86,9.36Zm-47.96,52.01c-7.86,3.09-16.75-.77-19.84-8.63-3.09-7.86.77-16.75,8.63-19.84s16.75.77,19.84,8.63c3.09,7.86-.77,16.75-8.63,19.84Z"/>
  <path class="cls-3" d="m1283.33,370.37c-2.12-3.28-4.59-6.26-7.35-8.9l-.02-.36,9.87-19.09-23.83-12.32-9.84,19.03c-3.75-.83-7.63-1.24-11.55-1.17l-.45-.42-6.7-21.04h-.03s0-.02,0-.02l-25.68,7.76,6.52,21.58-.04.19c-2.35,1.53-4.55,3.23-6.58,5.1l-3.22.15-19.09-9.87-12.32,23.83,20.02,10.35c-.86,3.36-1.37,6.82-1.51,10.34l-1.08,1.15-21.04,6.7v.03s-.02,0-.02,0l7.76,25.68,21.18-6.4c1.67,2.86,3.6,5.51,5.76,7.94l.08,1.78-9.87,19.09,23.83,12.32,9.5-18.37c4.08,1.18,8.33,1.84,12.66,1.93l6.38,20.04h.03s0,.02,0,.02l25.68-7.76-5.78-19.12c3.62-2.11,6.91-4.65,9.82-7.53l18.37,9.5,12.32-23.83-17.34-8.96c1.1-4.33,1.63-8.83,1.52-13.4l19.41-6.18v-.03s.02,0,.02,0l-7.76-25.68-19.66,5.94Zm-39.67,37.65c-6.22,1.98-12.88-1.46-14.86-7.68-1.98-6.22,1.46-12.88,7.68-14.86s12.88,1.46,14.86,7.68c1.98,6.22-1.46,12.88-7.68,14.86Z"/>
  <path class="cls-3" d="m912.08,629.26c2.5-2.99,4.62-6.23,6.33-9.65l.34-.12,21.16,3.78,4.71-26.41-21.09-3.76c-.32-3.83-1.08-7.65-2.3-11.38l.27-.56,18.11-12.63-.02-.02.03-.02-15.01-22.23-18.68,12.62-.19.02c-2.15-1.79-4.44-3.39-6.82-4.78l-1.1-3.03,3.78-21.16-26.41-4.71-3.96,22.19c-3.46.18-6.92.71-10.32,1.62l-1.42-.69-12.63-18.11-.02.02-.02-.02-22.23,15.01,12.38,18.33c-2.24,2.44-4.2,5.07-5.88,7.85l-1.68.61-21.16-3.78-4.71,26.41,20.36,3.63c.08,4.25.71,8.5,1.9,12.67l-17.25,12.03.02.02-.03.02,15.01,22.23,16.55-11.18c3.09,2.83,6.49,5.22,10.1,7.16l-3.63,20.35,26.41,4.71,3.43-19.21c4.46-.23,8.91-1.06,13.25-2.51l11.65,16.71.02-.02.02.02,22.23-15.01-11.49-17.02Zm-47.7-26.75c-3.74-5.36-2.42-12.73,2.94-16.47,5.36-3.74,12.73-2.42,16.47,2.94,3.74,5.36,2.42,12.73-2.94,16.47-5.36,3.74-12.73,2.42-16.47-2.94Z"/>
  <rect class="cls-1" x="905.4" y="349" width="303" height="303"/>
  <rect class="cls-4" x="932.9" y="376.5" width="248" height="248"/>
  <text class="cls-6" transform="translate(993.91 457.99)"><tspan x="0" y="0">Press</tspan></text>
  <text class="cls-5" transform="translate(1016.76 573.09)"><tspan x="0" y="0">E</tspan></text>
</svg>