<?xml version="1.0" encoding="UTF-8"?>
<svg id="Layer_1" data-name="Layer 1" xmlns="http://www.w3.org/2000/svg" viewBox="0 0 1696.65 477.97">
  <defs>
    <style>
      .cls-1 {
        fill: #fff;
        stroke-width: 40px;
      }

      .cls-1, .cls-2, .cls-3, .cls-4, .cls-5, .cls-6, .cls-7, .cls-8, .cls-9, .cls-10 {
        stroke-miterlimit: 10;
      }

      .cls-1, .cls-10 {
        stroke: #000;
      }

      .cls-2 {
        stroke: #26ff00;
        stroke-width: 6.07px;
      }

      .cls-2, .cls-4, .cls-6 {
        fill: none;
      }

      .cls-3 {
        stroke-width: 3.13px;
      }

      .cls-3, .cls-5, .cls-7, .cls-8, .cls-9 {
        fill: #878796;
        stroke: #3c3c47;
      }

      .cls-4 {
        stroke: #264bea;
      }

      .cls-4, .cls-6 {
        stroke-width: 5.94px;
      }

      .cls-5 {
        stroke-width: 7.75px;
      }

      .cls-6 {
        stroke: #ed2424;
      }

      .cls-7 {
        stroke-width: 7px;
      }

      .cls-8 {
        stroke-width: 5.15px;
      }

      .cls-9 {
        stroke-width: 4.14px;
      }

      .cls-10 {
        fill: #999bb5;
        stroke-width: 5.01px;
      }
    </style>
  </defs>
  <path class="cls-8" d="m1602.48,353.48c.16-4.97-.27-9.89-1.25-14.66l.24-.39,24.2-12.87-16.06-30.2-24.12,12.83c-3.33-3.59-7.1-6.83-11.27-9.6l-.17-.77,8.23-26.93h-.03s.01-.05.01-.05l-32.56-10.48-8.81,27.36-.18.17c-3.57-.11-7.12.09-10.6.58l-3.49-2.18-12.87-24.2-30.2,16.06,13.5,25.38c-3.33,2.9-6.38,6.16-9.08,9.75l-1.96.42-26.93-8.23v.03s-.05-.01-.05-.01l-10.48,32.56,26.85,8.64c-.32,4.21-.22,8.4.29,12.5l-1.21,1.93-24.2,12.87,16.06,30.2,23.28-12.38c3.43,4.19,7.41,7.97,11.88,11.21l-7.84,25.64h.03s-.01.05-.01.05l32.56,10.48,7.8-24.24c5.33.41,10.62.13,15.76-.77l12.38,23.28,30.2-16.06-11.68-21.97c4.29-3.74,8.11-8.08,11.31-12.95l24.85,7.59v-.03s.05.01.05.01l10.48-32.56-24.93-8.02Zm-68.91,10.72c-7.97-2.43-12.45-10.87-10.01-18.83s10.87-12.45,18.83-10.01,12.45,10.87,10.01,18.83-10.87,12.45-18.83,10.01Z"/>
  <rect class="cls-10" x="330.01" y="126.5" width="1244" height="225"/>
  <path class="cls-7" d="m1644.61,80.77c-3.69-5.66-8-10.81-12.8-15.37l-.03-.63,16.96-33.17-41.4-21.17-16.91,33.07c-6.51-1.41-13.23-2.08-20.03-1.94l-.78-.73-11.77-36.42h-.05s-.02-.04-.02-.04l-44.45,13.65,11.47,37.35-.07.33c-4.06,2.66-7.86,5.64-11.37,8.89l-5.58.28-33.17-16.96-21.17,41.4,34.79,17.79c-1.46,5.83-2.32,11.83-2.54,17.93l-1.86,2-36.42,11.77v.05s-.04.02-.04.02l13.65,44.45,36.66-11.25c2.92,4.94,6.29,9.53,10.05,13.72l.16,3.09-16.96,33.17,41.4,21.17,16.32-31.91c7.08,2.01,14.46,3.12,21.96,3.25l11.21,34.68h.05s.02.04.02.04l44.45-13.65-10.16-33.09c6.26-3.69,11.94-8.11,16.97-13.12l31.91,16.32,21.17-41.4-30.12-15.4c1.87-7.51,2.75-15.31,2.53-23.23l33.61-10.86v-.05s.04-.02.04-.02l-13.65-44.45-34.03,10.44Zm-68.47,65.56c-10.77,3.48-22.33-2.43-25.81-13.2s2.43-22.33,13.2-25.81,22.33,2.43,25.81,13.2-2.43,22.33-13.2,25.81Z"/>
  <path class="cls-9" d="m443.14,373.31c.13-4-.22-7.95-1.01-11.8l.2-.31,19.46-10.35-12.92-24.3-19.41,10.32c-2.68-2.89-5.71-5.49-9.06-7.73l-.13-.62,6.62-21.66h-.03s0-.04,0-.04l-26.19-8.43-7.09,22.01-.14.13c-2.87-.08-5.73.07-8.53.47l-2.8-1.75-10.35-19.46-24.3,12.92,10.86,20.42c-2.68,2.33-5.14,4.96-7.3,7.85l-1.58.34-21.66-6.62v.03s-.04,0-.04,0l-8.43,26.19,21.6,6.95c-.26,3.39-.17,6.75.23,10.06l-.97,1.55-19.47,10.35,12.92,24.3,18.73-9.96c2.76,3.37,5.96,6.41,9.56,9.02l-6.3,20.63h.03s0,.04,0,.04l26.19,8.43,6.28-19.5c4.29.33,8.54.11,12.68-.62l9.96,18.73,24.3-12.92-9.4-17.67c3.45-3.01,6.52-6.5,9.1-10.42l19.99,6.11v-.03s.04,0,.04,0l8.43-26.19-20.05-6.45Zm-55.43,8.63c-6.41-1.96-10.01-8.74-8.06-15.15,1.96-6.41,8.74-10.01,15.15-8.06s10.01,8.74,8.06,15.15-8.74,10.01-15.15,8.06Z"/>
  <path class="cls-3" d="m485.47,110.25c.1-3.02-.17-6-.76-8.9l.15-.24,14.69-7.81-9.75-18.33-14.64,7.79c-2.02-2.18-4.31-4.14-6.84-5.83l-.1-.47,5-16.34h-.02s0-.03,0-.03l-19.77-6.36-5.35,16.61-.11.1c-2.17-.06-4.32.06-6.44.35l-2.12-1.32-7.81-14.69-18.33,9.75,8.19,15.41c-2.02,1.76-3.88,3.74-5.51,5.92l-1.19.26-16.34-5v.02s-.03,0-.03,0l-6.36,19.77,16.3,5.25c-.2,2.56-.13,5.1.17,7.59l-.73,1.17-14.69,7.81,9.75,18.33,14.13-7.52c2.08,2.55,4.5,4.84,7.21,6.8l-4.76,15.57h.02s0,.03,0,.03l19.77,6.36,4.74-14.72c3.24.25,6.45.08,9.57-.47l7.51,14.13,18.33-9.75-7.09-13.34c2.6-2.27,4.92-4.9,6.86-7.86l15.08,4.61v-.02s.03,0,.03,0l6.36-19.77-15.13-4.87Zm-41.83,6.51c-4.83-1.48-7.56-6.6-6.08-11.43s6.6-7.56,11.43-6.08,7.56,6.6,6.08,11.43-6.6,7.56-11.43,6.08Z"/>
  <path class="cls-6" d="m371.83,301.9s246.56,27.16,267.18,74.04,672.21,231.04,901.5-65.75"/>
  <path class="cls-2" d="m374.83,284s246.56,28.29,267.18,77.14c18.97,44.92,673.24,239.32,901.5-68.51"/>
  <path class="cls-4" d="m374.83,295.77s246.56,27.16,267.18,74.04,672.21,231.04,901.5-65.75"/>
  <path class="cls-2" d="m142.51,171s-67,12-51,117,247,254,326,25"/>
  <path class="cls-6" d="m141.51,162s-67,12-51,117,247,254,326,25"/>
  <path class="cls-5" d="m212.78,112.39c-4.99-5.58-10.57-10.49-16.59-14.68l-.14-.68,13.01-39.16-48.88-16.23-12.97,39.04c-7.37-.45-14.83-.06-22.26,1.23l-.98-.67-19-37.9-.05.02-.03-.05-46.38,22.4,18.82,38.97-.02.37c-4,3.6-7.66,7.5-10.96,11.65l-6.06,1.25-39.16-13.01-16.23,48.88,41.07,13.64c-.62,6.62-.56,13.35.23,20.06l-1.7,2.5-37.9,19,.02.05-.05.03,22.4,46.38,38.24-18.47c4.02,4.92,8.49,9.38,13.3,13.33l.69,3.36-13.01,39.16,48.88,16.23,12.51-37.68c8.09,1.01,16.36.99,24.59-.13l18.09,36.09.05-.02.03.05,46.38-22.4-16.68-34.53c6.23-5.09,11.71-10.89,16.38-17.21l37.67,12.51,16.23-48.88-35.56-11.81c.79-8.53.44-17.23-1.13-25.86l34.97-17.53-.02-.05.05-.03-22.4-46.38-35.5,17.15Zm-63.97,83.27c-11.21,5.62-24.85,1.09-30.48-10.12-5.62-11.21-1.09-24.85,10.12-30.48s24.85-1.09,30.48,10.12c5.62,11.21,1.09,24.85-10.12,30.48Z"/>
  <path class="cls-4" d="m330.01,104.42c3.22-2.04,71.24-102.55-24.5-88.42-74.2,10.95-194.39,29.96-177.19,150.98"/>
  <path class="cls-6" d="m335.01,111.42c4.48-1.15,64.84-93.1-24.5-88.42-74.9,3.92-194.39,29.96-177.19,150.98"/>
  <path class="cls-2" d="m325.28,98.71c6.1-1.25,50.97-85.78-36.79-68.16-70.75,14.2-179.19,59.1-144.29,155.29"/>
  <path class="cls-4" d="m137.28,171s-70.47,13.21-53.64,128.82c16.83,115.6,259.78,279.65,342.87,27.52"/>
  <path class="cls-1" d="m1522.51,168H427.03c-13.8-35.3-48.15-60.31-88.34-60.31-17.56,0-33.99,4.79-48.09,13.11-15.18-10.33-33.52-16.38-53.27-16.38-52.37,0-94.82,42.45-94.82,94.82,0,26.55,10.92,50.53,28.5,67.75l-.1.1,117.91,117.91,77-77h1156.68v-140Z"/>
</svg>